# xmcd
#
# Track frame offsets: 
#        150
#        34977
#        61410
#        75504
#        105851
#        124900
#        152171
#        170747
#        184804
#        210956
#        238203
#
# Disc length: 3497 seconds
#
# Revision: 3
# Processed by: cddbd v1.5.2PL0 Copyright (c) Steve Scherf et al.
# Submitted via: ExactAudioCopy v1.0b3
#
DISCID=8e0da70b
DTITLE=Miller Anderson - From Lizard Rock!
DYEAR=2009
DGENRE=Rock
TTITLE0=High tide and high water
TTITLE1=Think it over
TTITLE2=Drinking man
TTITLE3=Ramblin' on my mind
TTITLE4=Boogie brothers
TTITLE5=As the crow flies
TTITLE6=Don't let me be misunderstood
TTITLE7=Memories of Woodstock
TTITLE8=Houston
TTITLE9=Eye on the prize
TTITLE10=That's all right mama
EXTD=
EXTT0=
EXTT1=
EXTT2=
EXTT3=
EXTT4=
EXTT5=
EXTT6=
EXTT7=
EXTT8=
EXTT9=
EXTT10=
PLAYORDER=
